<svg id="index" xmlns="http://www.w3.org/2000/svg" viewBox="0 0 25.88 25.88">
  <title>ins_link</title>
  <path d="M2320.08,2883.75h2a0.42,0.42,0,0,0,.43-0.34v-2c0-.18-0.33-0.14-0.52-0.14h0l-1.95-.09a0.3,0.3,0,0,0-.33.29v1.93A0.32,0.32,0,0,0,2320.08,2883.75Z" transform="translate(-2303.47 -2874.14)" fill="#181819"/>
  <path d="M2320.48,2885.84a4.57,4.57,0,0,1,.16,1.2,4.24,4.24,0,1,1-8.47,0,4.77,4.77,0,0,1,.16-1.24,1.69,1.69,0,0,1,.15-0.52h-1.94v6.52c0,0.82.29,1.48,1.11,1.48h9.51a1.4,1.4,0,0,0,1.38-1.48v-6.52h-2.21A1.82,1.82,0,0,1,2320.48,2885.84Z" transform="translate(-2303.47 -2874.14)" fill="#181819"/>
  <path d="M2316.41,2889.81a2.73,2.73,0,0,0,2.73-2.73,2.7,2.7,0,0,0-.35-1.33,2.65,2.65,0,0,0-.16-0.26,2.72,2.72,0,0,0-4.42,0,2.93,2.93,0,0,0-.16.26,2.69,2.69,0,0,0-.35,1.33A2.73,2.73,0,0,0,2316.41,2889.81Z" transform="translate(-2303.47 -2874.14)" fill="#181819"/>
  <path d="M2316.41,2874.14a12.94,12.94,0,1,0,12.94,12.94A12.94,12.94,0,0,0,2316.41,2874.14Zm8.14,18.25a3.25,3.25,0,0,1-2.82,2.92H2311.1a3,3,0,0,1-2.55-2.92v-10.62a2.55,2.55,0,0,1,2.55-2.46h10.62a2.82,2.82,0,0,1,2.82,2.46v10.62Z" transform="translate(-2303.47 -2874.14)" fill="#181819"/>
</svg>