<svg id="index" xmlns="http://www.w3.org/2000/svg" viewBox="0 0 35.72 21.69">
  <defs>
    <style>
      .cls-1 {
        fill: #fff;
      }
    </style>
  </defs>
  <title>d</title>
  <path class="cls-1" d="M2466.1,3122.44v21.69h35.72v-21.69H2466.1Zm8,15.36-1.86-7-2.65-2h4.69l1.21,6.14,2.28-6.14h2.47l-3.66,9h-2.46Zm7.94,0h-2.33l1.46-9h2.33Zm4.05,0.13a7,7,0,0,1-2.59-.48l0.33-2,0.3,0.14a4.67,4.67,0,0,0,2.19.47,1.2,1.2,0,0,0,1.39-.88c0-.39-0.3-0.68-1.21-1.12s-2.05-1.15-2-2.45c0-1.75,1.63-3,3.93-3a5.76,5.76,0,0,1,2.08.38l-0.31,2-0.21-.1a4.09,4.09,0,0,0-1.74-.35c-0.91,0-1.33.4-1.33,0.77s0.49,0.7,1.31,1.12c1.34,0.64,2,1.42,2,2.45,0,1.87-1.61,3.08-4.05,3.08h0Zm10-.13s-0.21-1-.28-1.35h-3l-0.49,1.35h-2.44l3.46-8.26a1.15,1.15,0,0,1,1.22-.75h1.8l1.88,9h-2.16Zm0,0" transform="translate(-2466.1 -3122.44)"/>
</svg>
