<svg id="vk_link" xmlns="http://www.w3.org/2000/svg" viewBox="0 0 25.76 25.76">
  <title>vk_link</title>
  <path d="M2219.78,2874.26a12.88,12.88,0,1,0,12.88,12.88,12.88,12.88,0,0,0-12.88-12.88h0Zm6.53,14.27a24.65,24.65,0,0,1,1.77,1.78,5.16,5.16,0,0,1,.64.92,0.66,0.66,0,0,1-.4,1h-2.64a2,2,0,0,1-1.68-.68c-0.37-.37-0.7-0.77-1.06-1.15a2.52,2.52,0,0,0-.47-0.42,0.55,0.55,0,0,0-.88.21,2.77,2.77,0,0,0-.28,1.23,0.7,0.7,0,0,1-.84.81,6.75,6.75,0,0,1-3.78-.81,8.35,8.35,0,0,1-2.54-2.38,32.06,32.06,0,0,1-3.34-6c-0.21-.47-0.06-0.72.46-0.73,0.86,0,1.72,0,2.58,0a0.76,0.76,0,0,1,.72.54,16,16,0,0,0,1.75,3.25,2.77,2.77,0,0,0,.66.73,0.4,0.4,0,0,0,.68-0.2,2.24,2.24,0,0,0,.15-0.68,10.12,10.12,0,0,0,0-2.39,1,1,0,0,0-.85-0.91c-0.25,0-.21-0.14-0.09-0.29a1,1,0,0,1,.81-0.4h3a0.71,0.71,0,0,1,.64.78v3.31a1,1,0,0,0,.42.85,0.59,0.59,0,0,0,.6-0.29,10.27,10.27,0,0,0,1.68-2.58c0.2-.41.38-0.83,0.54-1.25a0.64,0.64,0,0,1,.67-0.46h2.87l0.25,0a0.5,0.5,0,0,1,.47.76,7.17,7.17,0,0,1-1.14,2c-0.48.66-1,1.3-1.47,2a0.9,0.9,0,0,0,.14,1.44h0Zm0,0" transform="translate(-2206.9 -2874.26)" fill="#fa4c29" fill-rule="evenodd"/>
</svg>